<?xml version="1.0" standalone="no"?>
<!DOCTYPE svg PUBLIC "-//W3C//DTD SVG 20010904//EN"
 "http://www.w3.org/TR/2001/REC-SVG-20010904/DTD/svg10.dtd">
<svg version="1.0" xmlns="http://www.w3.org/2000/svg"
 width="96.000000pt" height="96.000000pt" viewBox="0 0 96.000000 96.000000"
 preserveAspectRatio="xMidYMid meet">
<metadata>
Created by potrace 1.14, written by Peter Selinger 2001-2017
</metadata>
<g transform="translate(0.000000,96.000000) scale(0.100000,-0.100000)"
fill="#000000" stroke="none">
<path d="M648 809 c-11 -6 -18 -22 -18 -39 0 -28 -2 -30 -42 -31 -24 -1 -47
-1 -52 0 -4 1 -17 -1 -27 -4 -15 -5 -19 -16 -19 -55 0 -45 3 -50 25 -56 55
-14 58 -94 4 -113 -27 -9 -29 -14 -29 -59 l0 -49 67 1 c63 1 67 3 75 28 17 51
64 46 74 -8 3 -19 10 -34 14 -34 4 0 21 -13 38 -28 l30 -28 -34 -64 c-19 -36
-33 -76 -32 -90 4 -34 46 -52 129 -54 100 -2 102 1 107 177 5 166 -3 196 -76
280 -23 27 -42 54 -43 60 -1 7 -2 30 -3 52 l-1 40 -57 3 c-56 3 -58 4 -58 30
0 46 -32 65 -72 41z"/>
<path d="M130 711 c0 -29 -34 -101 -74 -154 -59 -80 -65 -137 -31 -301 21
-101 34 -116 92 -111 149 15 162 28 110 115 -20 34 -37 64 -37 68 0 4 13 22
29 41 20 24 33 32 45 28 10 -4 15 -11 11 -17 -10 -16 31 -49 55 -43 19 5 49
43 33 43 -18 0 18 23 39 24 20 1 23 6 23 44 0 37 4 45 33 62 31 19 35 24 35
55 0 32 -4 36 -33 46 -27 10 -29 15 -32 67 -3 60 -5 61 -68 53 -5 0 -12 -17
-16 -36 -13 -72 -67 -72 -86 1 l-12 44 -58 0 c-57 0 -58 0 -58 -29z"/>
</g>
</svg>
